<mxfile host="app.diagrams.net" modified="2021-04-27T18:47:28.636Z" agent="5.0 (Windows NT 10.0; Win64; x64) AppleWebKit/537.36 (KHTML, like Gecko) Chrome/89.0.4389.114 Safari/537.36" etag="lS8kyuAXOwY5uWI5EWzb" version="14.6.6" type="github">
  <diagram id="n43ftpo8LZHwObjhhmLp" name="Page-1">
    <mxGraphModel dx="1422" dy="762" grid="1" gridSize="10" guides="1" tooltips="1" connect="1" arrows="1" fold="1" page="1" pageScale="1" pageWidth="827" pageHeight="1169" math="0" shadow="0">
      <root>
        <mxCell id="0" />
        <mxCell id="1" parent="0" />
        <mxCell id="6v9MxklC4xXUhLUr_cnv-1" value="" style="shape=umlLifeline;participant=umlActor;perimeter=lifelinePerimeter;whiteSpace=wrap;html=1;container=1;collapsible=0;recursiveResize=0;verticalAlign=top;spacingTop=36;outlineConnect=0;" parent="1" vertex="1">
          <mxGeometry x="30" y="80" width="20" height="440" as="geometry" />
        </mxCell>
        <mxCell id="6v9MxklC4xXUhLUr_cnv-17" value="" style="html=1;points=[];perimeter=orthogonalPerimeter;" parent="6v9MxklC4xXUhLUr_cnv-1" vertex="1">
          <mxGeometry x="5" y="40" width="10" height="40" as="geometry" />
        </mxCell>
        <mxCell id="6v9MxklC4xXUhLUr_cnv-4" value="UI" style="shape=umlLifeline;perimeter=lifelinePerimeter;whiteSpace=wrap;html=1;container=1;collapsible=0;recursiveResize=0;outlineConnect=0;" parent="1" vertex="1">
          <mxGeometry x="160" y="80" width="100" height="440" as="geometry" />
        </mxCell>
        <mxCell id="6v9MxklC4xXUhLUr_cnv-11" value="" style="html=1;points=[];perimeter=orthogonalPerimeter;" parent="6v9MxklC4xXUhLUr_cnv-4" vertex="1">
          <mxGeometry x="45" y="80" width="10" height="40" as="geometry" />
        </mxCell>
        <mxCell id="6v9MxklC4xXUhLUr_cnv-35" value="" style="html=1;points=[];perimeter=orthogonalPerimeter;" parent="6v9MxklC4xXUhLUr_cnv-4" vertex="1">
          <mxGeometry x="45" y="400" width="10" height="40" as="geometry" />
        </mxCell>
        <mxCell id="6v9MxklC4xXUhLUr_cnv-5" value="P2P Logik" style="shape=umlLifeline;perimeter=lifelinePerimeter;whiteSpace=wrap;html=1;container=1;collapsible=0;recursiveResize=0;outlineConnect=0;" parent="1" vertex="1">
          <mxGeometry x="320" y="80" width="100" height="400" as="geometry" />
        </mxCell>
        <mxCell id="6v9MxklC4xXUhLUr_cnv-15" value="" style="html=1;points=[];perimeter=orthogonalPerimeter;" parent="6v9MxklC4xXUhLUr_cnv-5" vertex="1">
          <mxGeometry x="45" y="120" width="10" height="280" as="geometry" />
        </mxCell>
        <mxCell id="6v9MxklC4xXUhLUr_cnv-30" value="" style="endArrow=classic;html=1;" parent="6v9MxklC4xXUhLUr_cnv-5" source="6v9MxklC4xXUhLUr_cnv-15" target="6v9MxklC4xXUhLUr_cnv-5" edge="1">
          <mxGeometry width="50" height="50" relative="1" as="geometry">
            <mxPoint x="90" y="390" as="sourcePoint" />
            <mxPoint x="140" y="340" as="targetPoint" />
            <Array as="points">
              <mxPoint x="70" y="330" />
              <mxPoint x="100" y="330" />
              <mxPoint x="100" y="380" />
            </Array>
          </mxGeometry>
        </mxCell>
        <mxCell id="6v9MxklC4xXUhLUr_cnv-6" value="P2P Framework" style="shape=umlLifeline;perimeter=lifelinePerimeter;whiteSpace=wrap;html=1;container=1;collapsible=0;recursiveResize=0;outlineConnect=0;" parent="1" vertex="1">
          <mxGeometry x="480" y="80" width="100" height="200" as="geometry" />
        </mxCell>
        <mxCell id="6v9MxklC4xXUhLUr_cnv-18" value="" style="html=1;points=[];perimeter=orthogonalPerimeter;" parent="6v9MxklC4xXUhLUr_cnv-6" vertex="1">
          <mxGeometry x="45" y="160" width="10" height="40" as="geometry" />
        </mxCell>
        <mxCell id="6v9MxklC4xXUhLUr_cnv-7" value="" style="endArrow=classic;html=1;exitX=0.7;exitY=1;exitDx=0;exitDy=0;exitPerimeter=0;" parent="1" source="6v9MxklC4xXUhLUr_cnv-17" target="6v9MxklC4xXUhLUr_cnv-4" edge="1">
          <mxGeometry width="50" height="50" relative="1" as="geometry">
            <mxPoint x="60" y="160" as="sourcePoint" />
            <mxPoint x="440" y="370" as="targetPoint" />
          </mxGeometry>
        </mxCell>
        <mxCell id="6v9MxklC4xXUhLUr_cnv-13" value="Anfrage mit Filtern" style="edgeLabel;html=1;align=center;verticalAlign=middle;resizable=0;points=[];" parent="6v9MxklC4xXUhLUr_cnv-7" vertex="1" connectable="0">
          <mxGeometry x="-0.2329" y="-1" relative="1" as="geometry">
            <mxPoint x="14" y="-1" as="offset" />
          </mxGeometry>
        </mxCell>
        <mxCell id="6v9MxklC4xXUhLUr_cnv-12" value="Verteilte&lt;br&gt;Volltextsuche" style="shape=umlLifeline;perimeter=lifelinePerimeter;whiteSpace=wrap;html=1;container=1;collapsible=0;recursiveResize=0;outlineConnect=0;" parent="1" vertex="1">
          <mxGeometry x="640" y="80" width="100" height="300" as="geometry" />
        </mxCell>
        <mxCell id="6v9MxklC4xXUhLUr_cnv-24" value="" style="html=1;points=[];perimeter=orthogonalPerimeter;" parent="6v9MxklC4xXUhLUr_cnv-12" vertex="1">
          <mxGeometry x="45" y="260" width="10" height="40" as="geometry" />
        </mxCell>
        <mxCell id="6v9MxklC4xXUhLUr_cnv-28" value="" style="endArrow=classic;html=1;entryX=0.6;entryY=1.05;entryDx=0;entryDy=0;entryPerimeter=0;" parent="6v9MxklC4xXUhLUr_cnv-12" source="6v9MxklC4xXUhLUr_cnv-12" target="6v9MxklC4xXUhLUr_cnv-24" edge="1">
          <mxGeometry width="50" height="50" relative="1" as="geometry">
            <mxPoint x="70" y="310" as="sourcePoint" />
            <mxPoint x="120" y="260" as="targetPoint" />
            <Array as="points">
              <mxPoint x="120" y="260" />
              <mxPoint x="120" y="300" />
            </Array>
          </mxGeometry>
        </mxCell>
        <mxCell id="6v9MxklC4xXUhLUr_cnv-14" value="" style="endArrow=classic;html=1;" parent="1" source="6v9MxklC4xXUhLUr_cnv-11" target="6v9MxklC4xXUhLUr_cnv-5" edge="1">
          <mxGeometry width="50" height="50" relative="1" as="geometry">
            <mxPoint x="230" y="200" as="sourcePoint" />
            <mxPoint x="320" y="250" as="targetPoint" />
            <Array as="points">
              <mxPoint x="290" y="200" />
            </Array>
          </mxGeometry>
        </mxCell>
        <mxCell id="6v9MxklC4xXUhLUr_cnv-16" value="Anfrage als Query" style="edgeLabel;html=1;align=center;verticalAlign=middle;resizable=0;points=[];" parent="6v9MxklC4xXUhLUr_cnv-14" vertex="1" connectable="0">
          <mxGeometry x="-0.2602" relative="1" as="geometry">
            <mxPoint x="11" as="offset" />
          </mxGeometry>
        </mxCell>
        <mxCell id="6v9MxklC4xXUhLUr_cnv-19" value="" style="endArrow=classic;html=1;" parent="1" target="6v9MxklC4xXUhLUr_cnv-6" edge="1">
          <mxGeometry width="50" height="50" relative="1" as="geometry">
            <mxPoint x="380" y="239" as="sourcePoint" />
            <mxPoint x="440" y="370" as="targetPoint" />
          </mxGeometry>
        </mxCell>
        <mxCell id="6v9MxklC4xXUhLUr_cnv-20" value="Fragt verantwortliche&lt;br&gt;&amp;nbsp;Peers an" style="edgeLabel;html=1;align=center;verticalAlign=middle;resizable=0;points=[];" parent="6v9MxklC4xXUhLUr_cnv-19" vertex="1" connectable="0">
          <mxGeometry x="-0.1473" y="-1" relative="1" as="geometry">
            <mxPoint x="12" y="-2" as="offset" />
          </mxGeometry>
        </mxCell>
        <mxCell id="6v9MxklC4xXUhLUr_cnv-21" value="" style="endArrow=classic;html=1;exitX=0.5;exitY=1;exitDx=0;exitDy=0;exitPerimeter=0;" parent="1" source="6v9MxklC4xXUhLUr_cnv-18" target="6v9MxklC4xXUhLUr_cnv-15" edge="1">
          <mxGeometry width="50" height="50" relative="1" as="geometry">
            <mxPoint x="420" y="390" as="sourcePoint" />
            <mxPoint x="470" y="340" as="targetPoint" />
          </mxGeometry>
        </mxCell>
        <mxCell id="6v9MxklC4xXUhLUr_cnv-22" value="gibt verantwortliche&lt;br&gt;&amp;nbsp;Peers zurück" style="edgeLabel;html=1;align=center;verticalAlign=middle;resizable=0;points=[];" parent="6v9MxklC4xXUhLUr_cnv-21" vertex="1" connectable="0">
          <mxGeometry x="0.2516" y="-1" relative="1" as="geometry">
            <mxPoint x="17" y="1" as="offset" />
          </mxGeometry>
        </mxCell>
        <mxCell id="6v9MxklC4xXUhLUr_cnv-23" value="" style="endArrow=classic;html=1;entryX=0.3;entryY=0;entryDx=0;entryDy=0;entryPerimeter=0;" parent="1" source="6v9MxklC4xXUhLUr_cnv-5" target="6v9MxklC4xXUhLUr_cnv-24" edge="1">
          <mxGeometry width="50" height="50" relative="1" as="geometry">
            <mxPoint x="510" y="390" as="sourcePoint" />
            <mxPoint x="560" y="340" as="targetPoint" />
          </mxGeometry>
        </mxCell>
        <mxCell id="6v9MxklC4xXUhLUr_cnv-25" value="Anfrage der Ergebnisse&lt;br&gt;auf alle Peers" style="edgeLabel;html=1;align=center;verticalAlign=middle;resizable=0;points=[];" parent="6v9MxklC4xXUhLUr_cnv-23" vertex="1" connectable="0">
          <mxGeometry x="-0.1177" y="1" relative="1" as="geometry">
            <mxPoint as="offset" />
          </mxGeometry>
        </mxCell>
        <mxCell id="6v9MxklC4xXUhLUr_cnv-26" value="" style="endArrow=classic;html=1;exitX=0.2;exitY=1.075;exitDx=0;exitDy=0;exitPerimeter=0;" parent="1" source="6v9MxklC4xXUhLUr_cnv-24" target="6v9MxklC4xXUhLUr_cnv-5" edge="1">
          <mxGeometry width="50" height="50" relative="1" as="geometry">
            <mxPoint x="610" y="440" as="sourcePoint" />
            <mxPoint x="660" y="390" as="targetPoint" />
          </mxGeometry>
        </mxCell>
        <mxCell id="6v9MxklC4xXUhLUr_cnv-27" value="gibt Ergebnisse zurück" style="edgeLabel;html=1;align=center;verticalAlign=middle;resizable=0;points=[];" parent="6v9MxklC4xXUhLUr_cnv-26" vertex="1" connectable="0">
          <mxGeometry x="0.222" y="1" relative="1" as="geometry">
            <mxPoint x="37" as="offset" />
          </mxGeometry>
        </mxCell>
        <mxCell id="6v9MxklC4xXUhLUr_cnv-29" value="Suche auf invertiertem Index" style="text;html=1;strokeColor=none;fillColor=none;align=center;verticalAlign=middle;whiteSpace=wrap;rounded=0;" parent="1" vertex="1">
          <mxGeometry x="770" y="330" width="100" height="60" as="geometry" />
        </mxCell>
        <mxCell id="6v9MxklC4xXUhLUr_cnv-31" value="Map reduce&lt;br&gt;aggregieren und sortieren der Ergebnisse" style="text;html=1;strokeColor=none;fillColor=none;align=center;verticalAlign=middle;whiteSpace=wrap;rounded=0;" parent="1" vertex="1">
          <mxGeometry x="414" y="410" width="130" height="70" as="geometry" />
        </mxCell>
        <mxCell id="6v9MxklC4xXUhLUr_cnv-32" value="" style="endArrow=classic;html=1;exitX=0.6;exitY=1.011;exitDx=0;exitDy=0;exitPerimeter=0;" parent="1" source="6v9MxklC4xXUhLUr_cnv-15" target="6v9MxklC4xXUhLUr_cnv-4" edge="1">
          <mxGeometry width="50" height="50" relative="1" as="geometry">
            <mxPoint x="410" y="550" as="sourcePoint" />
            <mxPoint x="460" y="500" as="targetPoint" />
          </mxGeometry>
        </mxCell>
        <mxCell id="6v9MxklC4xXUhLUr_cnv-33" value="gibt Ergebnisse zurück" style="edgeLabel;html=1;align=center;verticalAlign=middle;resizable=0;points=[];" parent="6v9MxklC4xXUhLUr_cnv-32" vertex="1" connectable="0">
          <mxGeometry x="0.276" y="-2" relative="1" as="geometry">
            <mxPoint x="22" y="1" as="offset" />
          </mxGeometry>
        </mxCell>
        <mxCell id="6v9MxklC4xXUhLUr_cnv-34" value="" style="endArrow=classic;html=1;" parent="1" target="6v9MxklC4xXUhLUr_cnv-1" edge="1">
          <mxGeometry width="50" height="50" relative="1" as="geometry">
            <mxPoint x="209" y="520" as="sourcePoint" />
            <mxPoint x="260" y="560" as="targetPoint" />
          </mxGeometry>
        </mxCell>
        <mxCell id="6v9MxklC4xXUhLUr_cnv-36" value="Ergebnisse anzeigen" style="edgeLabel;html=1;align=center;verticalAlign=middle;resizable=0;points=[];" parent="6v9MxklC4xXUhLUr_cnv-34" vertex="1" connectable="0">
          <mxGeometry x="0.1681" y="2" relative="1" as="geometry">
            <mxPoint x="10" y="-2" as="offset" />
          </mxGeometry>
        </mxCell>
        <mxCell id="l81JvH45LQJKIiB7d4WU-1" value="" style="shape=umlLifeline;participant=umlActor;perimeter=lifelinePerimeter;whiteSpace=wrap;html=1;container=1;collapsible=0;recursiveResize=0;verticalAlign=top;spacingTop=36;outlineConnect=0;" vertex="1" parent="1">
          <mxGeometry x="30" y="80" width="20" height="440" as="geometry" />
        </mxCell>
        <mxCell id="l81JvH45LQJKIiB7d4WU-2" value="" style="html=1;points=[];perimeter=orthogonalPerimeter;" vertex="1" parent="l81JvH45LQJKIiB7d4WU-1">
          <mxGeometry x="5" y="40" width="10" height="40" as="geometry" />
        </mxCell>
        <mxCell id="l81JvH45LQJKIiB7d4WU-3" value="UI" style="shape=umlLifeline;perimeter=lifelinePerimeter;whiteSpace=wrap;html=1;container=1;collapsible=0;recursiveResize=0;outlineConnect=0;" vertex="1" parent="1">
          <mxGeometry x="160" y="80" width="100" height="440" as="geometry" />
        </mxCell>
        <mxCell id="l81JvH45LQJKIiB7d4WU-4" value="" style="html=1;points=[];perimeter=orthogonalPerimeter;" vertex="1" parent="l81JvH45LQJKIiB7d4WU-3">
          <mxGeometry x="45" y="80" width="10" height="40" as="geometry" />
        </mxCell>
        <mxCell id="l81JvH45LQJKIiB7d4WU-5" value="" style="html=1;points=[];perimeter=orthogonalPerimeter;" vertex="1" parent="l81JvH45LQJKIiB7d4WU-3">
          <mxGeometry x="45" y="400" width="10" height="40" as="geometry" />
        </mxCell>
        <mxCell id="l81JvH45LQJKIiB7d4WU-6" value="P2P Logik" style="shape=umlLifeline;perimeter=lifelinePerimeter;whiteSpace=wrap;html=1;container=1;collapsible=0;recursiveResize=0;outlineConnect=0;" vertex="1" parent="1">
          <mxGeometry x="320" y="80" width="100" height="400" as="geometry" />
        </mxCell>
        <mxCell id="l81JvH45LQJKIiB7d4WU-7" value="" style="html=1;points=[];perimeter=orthogonalPerimeter;" vertex="1" parent="l81JvH45LQJKIiB7d4WU-6">
          <mxGeometry x="45" y="120" width="10" height="280" as="geometry" />
        </mxCell>
        <mxCell id="l81JvH45LQJKIiB7d4WU-8" value="" style="endArrow=classic;html=1;" edge="1" parent="l81JvH45LQJKIiB7d4WU-6" source="l81JvH45LQJKIiB7d4WU-7" target="l81JvH45LQJKIiB7d4WU-6">
          <mxGeometry width="50" height="50" relative="1" as="geometry">
            <mxPoint x="90" y="390" as="sourcePoint" />
            <mxPoint x="140" y="340" as="targetPoint" />
            <Array as="points">
              <mxPoint x="70" y="330" />
              <mxPoint x="100" y="330" />
              <mxPoint x="100" y="380" />
            </Array>
          </mxGeometry>
        </mxCell>
        <mxCell id="l81JvH45LQJKIiB7d4WU-9" value="P2P Framework" style="shape=umlLifeline;perimeter=lifelinePerimeter;whiteSpace=wrap;html=1;container=1;collapsible=0;recursiveResize=0;outlineConnect=0;" vertex="1" parent="1">
          <mxGeometry x="480" y="80" width="100" height="200" as="geometry" />
        </mxCell>
        <mxCell id="l81JvH45LQJKIiB7d4WU-10" value="" style="html=1;points=[];perimeter=orthogonalPerimeter;" vertex="1" parent="l81JvH45LQJKIiB7d4WU-9">
          <mxGeometry x="45" y="160" width="10" height="40" as="geometry" />
        </mxCell>
        <mxCell id="l81JvH45LQJKIiB7d4WU-11" value="" style="endArrow=classic;html=1;exitX=0.7;exitY=1;exitDx=0;exitDy=0;exitPerimeter=0;" edge="1" parent="1" source="l81JvH45LQJKIiB7d4WU-2" target="l81JvH45LQJKIiB7d4WU-3">
          <mxGeometry width="50" height="50" relative="1" as="geometry">
            <mxPoint x="60" y="160" as="sourcePoint" />
            <mxPoint x="440" y="370" as="targetPoint" />
          </mxGeometry>
        </mxCell>
        <mxCell id="l81JvH45LQJKIiB7d4WU-12" value="Anfrage mit Filtern" style="edgeLabel;html=1;align=center;verticalAlign=middle;resizable=0;points=[];" vertex="1" connectable="0" parent="l81JvH45LQJKIiB7d4WU-11">
          <mxGeometry x="-0.2329" y="-1" relative="1" as="geometry">
            <mxPoint x="14" y="-1" as="offset" />
          </mxGeometry>
        </mxCell>
        <mxCell id="l81JvH45LQJKIiB7d4WU-13" value="Verteilte&lt;br&gt;Volltextsuche" style="shape=umlLifeline;perimeter=lifelinePerimeter;whiteSpace=wrap;html=1;container=1;collapsible=0;recursiveResize=0;outlineConnect=0;" vertex="1" parent="1">
          <mxGeometry x="640" y="80" width="100" height="300" as="geometry" />
        </mxCell>
        <mxCell id="l81JvH45LQJKIiB7d4WU-14" value="" style="html=1;points=[];perimeter=orthogonalPerimeter;" vertex="1" parent="l81JvH45LQJKIiB7d4WU-13">
          <mxGeometry x="45" y="260" width="10" height="40" as="geometry" />
        </mxCell>
        <mxCell id="l81JvH45LQJKIiB7d4WU-15" value="" style="endArrow=classic;html=1;entryX=0.6;entryY=1.05;entryDx=0;entryDy=0;entryPerimeter=0;" edge="1" parent="l81JvH45LQJKIiB7d4WU-13" source="l81JvH45LQJKIiB7d4WU-13" target="l81JvH45LQJKIiB7d4WU-14">
          <mxGeometry width="50" height="50" relative="1" as="geometry">
            <mxPoint x="70" y="310" as="sourcePoint" />
            <mxPoint x="120" y="260" as="targetPoint" />
            <Array as="points">
              <mxPoint x="120" y="260" />
              <mxPoint x="120" y="300" />
            </Array>
          </mxGeometry>
        </mxCell>
        <mxCell id="l81JvH45LQJKIiB7d4WU-16" value="" style="endArrow=classic;html=1;" edge="1" parent="1" source="l81JvH45LQJKIiB7d4WU-4" target="l81JvH45LQJKIiB7d4WU-6">
          <mxGeometry width="50" height="50" relative="1" as="geometry">
            <mxPoint x="230" y="200" as="sourcePoint" />
            <mxPoint x="320" y="250" as="targetPoint" />
            <Array as="points">
              <mxPoint x="290" y="200" />
            </Array>
          </mxGeometry>
        </mxCell>
        <mxCell id="l81JvH45LQJKIiB7d4WU-17" value="Anfrage als Query" style="edgeLabel;html=1;align=center;verticalAlign=middle;resizable=0;points=[];" vertex="1" connectable="0" parent="l81JvH45LQJKIiB7d4WU-16">
          <mxGeometry x="-0.2602" relative="1" as="geometry">
            <mxPoint x="11" as="offset" />
          </mxGeometry>
        </mxCell>
        <mxCell id="l81JvH45LQJKIiB7d4WU-18" value="" style="endArrow=classic;html=1;" edge="1" parent="1" target="l81JvH45LQJKIiB7d4WU-9">
          <mxGeometry width="50" height="50" relative="1" as="geometry">
            <mxPoint x="380" y="239" as="sourcePoint" />
            <mxPoint x="440" y="370" as="targetPoint" />
          </mxGeometry>
        </mxCell>
        <mxCell id="l81JvH45LQJKIiB7d4WU-19" value="Fragt verantwortliche&lt;br&gt;&amp;nbsp;Peers an" style="edgeLabel;html=1;align=center;verticalAlign=middle;resizable=0;points=[];" vertex="1" connectable="0" parent="l81JvH45LQJKIiB7d4WU-18">
          <mxGeometry x="-0.1473" y="-1" relative="1" as="geometry">
            <mxPoint x="12" y="-2" as="offset" />
          </mxGeometry>
        </mxCell>
        <mxCell id="l81JvH45LQJKIiB7d4WU-20" value="" style="endArrow=classic;html=1;exitX=0.5;exitY=1;exitDx=0;exitDy=0;exitPerimeter=0;" edge="1" parent="1" source="l81JvH45LQJKIiB7d4WU-10" target="l81JvH45LQJKIiB7d4WU-7">
          <mxGeometry width="50" height="50" relative="1" as="geometry">
            <mxPoint x="420" y="390" as="sourcePoint" />
            <mxPoint x="470" y="340" as="targetPoint" />
          </mxGeometry>
        </mxCell>
        <mxCell id="l81JvH45LQJKIiB7d4WU-21" value="gibt verantwortliche&lt;br&gt;&amp;nbsp;Peers zurück" style="edgeLabel;html=1;align=center;verticalAlign=middle;resizable=0;points=[];" vertex="1" connectable="0" parent="l81JvH45LQJKIiB7d4WU-20">
          <mxGeometry x="0.2516" y="-1" relative="1" as="geometry">
            <mxPoint x="17" y="1" as="offset" />
          </mxGeometry>
        </mxCell>
        <mxCell id="l81JvH45LQJKIiB7d4WU-22" value="" style="endArrow=classic;html=1;entryX=0.3;entryY=0;entryDx=0;entryDy=0;entryPerimeter=0;" edge="1" parent="1" source="l81JvH45LQJKIiB7d4WU-6" target="l81JvH45LQJKIiB7d4WU-14">
          <mxGeometry width="50" height="50" relative="1" as="geometry">
            <mxPoint x="510" y="390" as="sourcePoint" />
            <mxPoint x="560" y="340" as="targetPoint" />
          </mxGeometry>
        </mxCell>
        <mxCell id="l81JvH45LQJKIiB7d4WU-23" value="Anfrage der Ergebnisse&lt;br&gt;auf alle Peers" style="edgeLabel;html=1;align=center;verticalAlign=middle;resizable=0;points=[];" vertex="1" connectable="0" parent="l81JvH45LQJKIiB7d4WU-22">
          <mxGeometry x="-0.1177" y="1" relative="1" as="geometry">
            <mxPoint as="offset" />
          </mxGeometry>
        </mxCell>
        <mxCell id="l81JvH45LQJKIiB7d4WU-24" value="" style="endArrow=classic;html=1;exitX=0.2;exitY=1.075;exitDx=0;exitDy=0;exitPerimeter=0;" edge="1" parent="1" source="l81JvH45LQJKIiB7d4WU-14" target="l81JvH45LQJKIiB7d4WU-6">
          <mxGeometry width="50" height="50" relative="1" as="geometry">
            <mxPoint x="610" y="440" as="sourcePoint" />
            <mxPoint x="660" y="390" as="targetPoint" />
          </mxGeometry>
        </mxCell>
        <mxCell id="l81JvH45LQJKIiB7d4WU-25" value="gibt Ergebnisse zurück" style="edgeLabel;html=1;align=center;verticalAlign=middle;resizable=0;points=[];" vertex="1" connectable="0" parent="l81JvH45LQJKIiB7d4WU-24">
          <mxGeometry x="0.222" y="1" relative="1" as="geometry">
            <mxPoint x="37" as="offset" />
          </mxGeometry>
        </mxCell>
        <mxCell id="l81JvH45LQJKIiB7d4WU-26" value="Suche auf invertiertem Index" style="text;html=1;strokeColor=none;fillColor=none;align=center;verticalAlign=middle;whiteSpace=wrap;rounded=0;" vertex="1" parent="1">
          <mxGeometry x="770" y="330" width="100" height="60" as="geometry" />
        </mxCell>
        <mxCell id="l81JvH45LQJKIiB7d4WU-27" value="Map reduce&lt;br&gt;aggregieren und sortieren der Ergebnisse" style="text;html=1;strokeColor=none;fillColor=none;align=center;verticalAlign=middle;whiteSpace=wrap;rounded=0;" vertex="1" parent="1">
          <mxGeometry x="414" y="410" width="130" height="70" as="geometry" />
        </mxCell>
        <mxCell id="l81JvH45LQJKIiB7d4WU-28" value="" style="endArrow=classic;html=1;exitX=0.6;exitY=1.011;exitDx=0;exitDy=0;exitPerimeter=0;" edge="1" parent="1" source="l81JvH45LQJKIiB7d4WU-7" target="l81JvH45LQJKIiB7d4WU-3">
          <mxGeometry width="50" height="50" relative="1" as="geometry">
            <mxPoint x="410" y="550" as="sourcePoint" />
            <mxPoint x="460" y="500" as="targetPoint" />
          </mxGeometry>
        </mxCell>
        <mxCell id="l81JvH45LQJKIiB7d4WU-29" value="gibt Ergebnisse zurück" style="edgeLabel;html=1;align=center;verticalAlign=middle;resizable=0;points=[];" vertex="1" connectable="0" parent="l81JvH45LQJKIiB7d4WU-28">
          <mxGeometry x="0.276" y="-2" relative="1" as="geometry">
            <mxPoint x="22" y="1" as="offset" />
          </mxGeometry>
        </mxCell>
        <mxCell id="l81JvH45LQJKIiB7d4WU-30" value="" style="endArrow=classic;html=1;" edge="1" parent="1" target="l81JvH45LQJKIiB7d4WU-1">
          <mxGeometry width="50" height="50" relative="1" as="geometry">
            <mxPoint x="209" y="520" as="sourcePoint" />
            <mxPoint x="260" y="560" as="targetPoint" />
          </mxGeometry>
        </mxCell>
        <mxCell id="l81JvH45LQJKIiB7d4WU-31" value="Ergebnisse anzeigen" style="edgeLabel;html=1;align=center;verticalAlign=middle;resizable=0;points=[];" vertex="1" connectable="0" parent="l81JvH45LQJKIiB7d4WU-30">
          <mxGeometry x="0.1681" y="2" relative="1" as="geometry">
            <mxPoint x="10" y="-2" as="offset" />
          </mxGeometry>
        </mxCell>
      </root>
    </mxGraphModel>
  </diagram>
</mxfile>
